<!DOCTYPE svg PUBLIC "-//W3C//DTD SVG 20010904//EN" "http://www.w3.org/TR/2001/REC-SVG-20010904/DTD/svg10.dtd">
<svg version="1.0" xmlns="http://www.w3.org/2000/svg" width="512px" height="512px" viewBox="0 0 5120 5120" preserveAspectRatio="xMidYMid meet">
<g id="layer101" fill="#1766b5" stroke="none">
 <path d="M2340 5019 c-425 -35 -832 -175 -1175 -404 -149 -100 -230 -166 -359 -293 -128 -126 -210 -226 -311 -377 -550 -823 -550 -1958 0 -2780 100 -149 166 -230 293 -359 126 -128 226 -210 377 -311 823 -550 1958 -550 2780 0 149 100 230 166 359 293 572 565 826 1384 685 2214 -86 504 -324 964 -685 1320 -129 127 -210 193 -359 293 -460 307 -1029 451 -1605 404z"/>
 </g>
<g id="layer102" fill="#1976d2" stroke="none">
 <path d="M2380 4910 c-850 -54 -1639 -608 -1984 -1395 -140 -321 -200 -607 -200 -960 0 -224 14 -348 59 -540 205 -873 887 -1555 1760 -1760 192 -45 316 -59 540 -59 224 0 348 14 540 59 873 205 1555 888 1760 1760 45 192 58 308 58 520 0 397 -76 726 -243 1064 -132 263 -261 441 -471 647 -297 290 -653 490 -1056 594 -225 59 -521 86 -763 70z m425 -622 c125 -11 256 -43 372 -88 458 -182 807 -519 998 -965 59 -140 72 -186 101 -365 49 -302 31 -571 -57 -845 -58 -181 -114 -289 -194 -373 l-65 -67 55 93 c296 495 323 1091 74 1611 -162 340 -431 616 -761 782 -556 280 -1198 244 -1713 -95 -52 -35 -95 -62 -95 -59 0 2 33 35 73 73 90 88 231 163 423 226 263 86 457 104 789 72z"/>
 </g>
<g id="layer103" fill="#269cf9" stroke="none">
 <path d="M2205 4890 c-235 -36 -449 -103 -664 -206 -256 -123 -434 -247 -630 -438 -210 -206 -339 -384 -470 -646 -167 -336 -244 -667 -244 -1045 0 -378 77 -709 244 -1045 131 -262 260 -440 470 -646 196 -191 373 -314 630 -438 324 -157 647 -229 1014 -229 367 0 690 72 1014 229 257 124 434 247 630 438 210 206 339 384 470 646 146 293 224 593 245 937 l6 91 -213 -221 c-286 -298 -389 -407 -542 -572 -71 -77 -168 -180 -216 -230 -47 -49 -110 -117 -140 -149 -30 -32 -94 -93 -144 -134 -647 -541 -1576 -541 -2220 0 -361 304 -569 708 -616 1199 -33 345 75 759 281 1072 76 117 146 197 428 487 147 152 359 375 472 495 112 121 249 266 304 323 l100 102 -45 -1 c-24 0 -98 -9 -164 -19z"/>
 <path d="M2390 4249 c-493 -47 -970 -329 -1242 -734 -349 -520 -393 -1167 -115 -1721 169 -338 423 -592 761 -761 484 -242 1038 -242 1522 0 273 137 483 322 650 572 447 672 371 1545 -186 2129 -353 370 -877 565 -1390 515z m333 -1214 c77 -20 142 -54 200 -105 42 -37 47 -46 47 -84 l0 -42 -62 61 c-124 121 -269 153 -411 93 -105 -45 -169 -173 -183 -369 -16 -206 51 -361 184 -426 78 -38 192 -40 267 -3 67 33 128 97 156 165 32 77 49 73 49 -13 0 -131 -12 -252 -25 -252 -7 0 -16 11 -19 25 -11 45 -43 50 -137 20 -169 -52 -320 -42 -459 31 -191 100 -304 314 -270 513 32 192 154 326 345 382 77 22 240 25 318 4z"/>
 </g>
<g id="layer104" fill="#59b0f7" stroke="none">
 <path d="M2398 4250 c-781 -82 -1386 -648 -1524 -1425 -24 -137 -24 -403 0 -540 48 -268 148 -508 305 -730 72 -103 273 -304 376 -376 222 -157 462 -257 730 -305 137 -24 403 -24 540 0 496 88 914 367 1172 781 189 303 286 696 254 1030 -12 124 -44 301 -49 268 -2 -11 -90 -110 -196 -220 -106 -109 -226 -235 -267 -279 -137 -151 -344 -368 -379 -399 -34 -30 -34 -30 -18 -3 91 141 147 333 148 500 0 117 -49 354 -81 392 -6 6 -24 36 -42 66 -55 92 -61 102 -82 128 -38 48 -150 154 -177 168 -16 8 -28 18 -28 22 0 4 -10 12 -23 18 -43 22 -152 76 -169 85 -10 5 -26 9 -36 9 -10 0 -22 4 -27 9 -38 33 -355 49 -465 22 -112 -27 -239 -80 -337 -142 -52 -33 -38 -6 35 68 90 91 618 656 644 688 11 14 39 46 63 70 64 67 64 81 1 89 -102 12 -283 15 -368 6z m325 -1215 c77 -20 142 -54 200 -105 42 -37 47 -46 47 -84 l0 -42 -62 61 c-124 121 -269 153 -411 93 -105 -45 -169 -173 -183 -369 -16 -206 51 -361 184 -426 78 -38 192 -40 267 -3 67 33 128 97 156 165 32 77 49 73 49 -13 0 -131 -12 -252 -25 -252 -7 0 -16 11 -19 25 -11 45 -43 50 -137 20 -169 -52 -320 -42 -459 31 -191 100 -304 314 -270 513 32 192 154 326 345 382 77 22 240 25 318 4z"/>
 <path d="M3241 4106 c10 -9 149 -76 149 -71 0 5 -136 75 -146 75 -4 0 -5 -2 -3 -4z"/>
 <path d="M3450 3997 c0 -2 26 -21 58 -41 31 -20 45 -27 30 -14 -30 26 -88 62 -88 55z"/>
 <path d="M3615 3879 c136 -116 242 -234 368 -409 13 -19 15 -20 8 -4 -41 87 -271 343 -381 423 -44 32 -44 32 5 -10z"/>
 <path d="M4067 3315 c20 -41 39 -73 41 -71 4 5 -66 146 -73 146 -3 0 12 -34 32 -75z"/>
 </g>
<g id="layer105" fill="#fdfdfd" stroke="none">
 <path d="M2436 3479 c-478 -65 -819 -450 -819 -924 0 -441 305 -818 738 -911 106 -22 284 -22 390 0 433 93 739 470 739 911 0 434 -295 806 -719 905 -100 23 -238 31 -329 19z m287 -444 c77 -20 142 -54 200 -105 42 -37 47 -46 47 -84 l0 -42 -62 61 c-124 121 -269 153 -411 93 -105 -45 -169 -173 -183 -369 -16 -206 51 -361 184 -426 78 -38 192 -40 267 -3 67 33 128 97 156 165 32 77 49 73 49 -13 0 -131 -12 -252 -25 -252 -7 0 -16 11 -19 25 -11 45 -43 50 -137 20 -169 -52 -320 -42 -459 31 -191 100 -304 314 -270 513 32 192 154 326 345 382 77 22 240 25 318 4z"/>
 </g>

</svg>