<?xml version="1.0" encoding="UTF-8" standalone="no"?>
<svg
   xmlns:dc="http://purl.org/dc/elements/1.1/"
   xmlns:cc="http://creativecommons.org/ns#"
   xmlns:rdf="http://www.w3.org/1999/02/22-rdf-syntax-ns#"
   xmlns:svg="http://www.w3.org/2000/svg"
   xmlns="http://www.w3.org/2000/svg"
   id="svg12"
   height="61.603818mm"
   width="51.990625mm"
   version="1.0">
  <metadata
     id="metadata16">
    <rdf:RDF>
      <cc:Work
         rdf:about="">
        <dc:format>image/svg+xml</dc:format>
        <dc:type
           rdf:resource="http://purl.org/dc/dcmitype/StillImage" />
      </cc:Work>
    </rdf:RDF>
  </metadata>
  <defs
     id="defs6">
    <clipPath
       id="clipWmfPath1"
       clipPathUnits="userSpaceOnUse">
      <path
         id="path2"
         d="M 0,0 L 196.33333,0 L 196.33333,232.66667 L 0,232.66667 z" />
    </clipPath>
    <pattern
       y="0"
       x="0"
       height="6"
       width="6"
       patternUnits="userSpaceOnUse"
       id="WMFhbasepattern" />
  </defs>
  <path
     id="path8"
     d="  M 109.28742,0.64007336   L 114.40777,0.64007336   L 116.80793,0.64007336   L 119.36811,0.8000917   L 121.92828,0.96011004   L 124.32844,1.2801467   L 126.88862,1.4401651   L 129.28878,1.7602017   L 131.84895,2.0802384   L 134.24912,2.5602934   L 136.64928,2.8803301   L 139.04944,3.3603851   L 141.44961,3.8404402   L 143.68976,4.4805135   L 146.08992,5.1205869   L 148.33007,5.7606602   L 150.57023,6.5607519   L 152.81038,7.3608436   L 154.89052,8.1609354   L 156.97066,8.9610271   L 159.0508,9.9211371   L 161.13094,11.041265   L 163.05107,12.001376   L 164.9712,13.121504   L 166.89133,14.401651   L 168.81146,15.681797   L 170.57158,16.961944   L 172.17169,18.242091   L 173.93181,19.682256   L 175.53192,21.282439   L 176.97202,22.722604   L 178.57213,24.482806   L 180.81228,28.643283   L 183.05243,32.80376   L 184.97256,36.964237   L 186.73268,41.284732   L 188.33279,45.605227   L 189.77289,49.765704   L 191.05297,54.086199   L 192.17305,58.406694   L 193.13312,62.727189   L 193.77316,67.047685   L 194.4132,71.36818   L 194.89324,75.688675   L 195.37327,80.169188   L 195.53328,84.489684   L 195.69329,88.810179   L 195.53328,93.130674   L 195.53328,97.451169   L 195.21326,101.77166   L 194.4132,110.41265   L 193.29313,119.05365   L 192.01304,127.53462   L 190.25292,135.85557   L 188.4928,144.17652   L 186.41266,152.33746   L 184.33252,160.33838   L 183.53246,163.21871   L 160.33089,163.21871   L 158.57077,168.65933   L 140.32953,168.65933   L 140.32953,158.25814   L 172.3317,158.25814   L 172.3317,106.4122   L 22.721543,106.4122   L 22.721543,158.25814   L 42.082858,158.25814   L 9.7606629,190.74186   L 43.522956,190.74186   L 75.845151,158.25814   L 113.60772,158.25814   L 113.60772,190.74186   L 175.85194,190.74186   L 173.13176,200.02293   L 172.65173,201.46309   L 172.01168,202.74324   L 171.37164,204.02338   L 170.73159,205.30353   L 170.09155,206.42366   L 169.2915,207.38377   L 168.65145,208.5039   L 167.8514,209.30399   L 167.05134,210.2641   L 166.09128,211.06419   L 165.13121,211.86428   L 164.17115,212.66437   L 163.21108,213.46447   L 161.931,214.10454   L 160.81092,214.90463   L 159.53083,215.5447   L 158.25075,216.18478   L 156.81065,216.82485   L 155.21054,217.46492   L 153.61043,218.105   L 152.01032,218.74507   L 150.2502,219.38514   L 148.33007,220.02522   L 146.24993,220.66529   L 144.16979,221.46538   L 141.92964,222.10546   L 139.68949,222.90555   L 137.12931,223.70564   L 134.56914,224.50573   L 131.84895,225.46584   L 128.96876,226.42595   L 126.08856,227.38606   L 121.92828,228.50619   L 117.60799,229.62632   L 113.12768,230.42641   L 108.64738,231.06648   L 103.84705,231.54654   L 99.046726,231.86657   L 94.2464,232.02659   L 89.286064,231.86657   L 84.165716,231.70656   L 79.205379,231.38652   L 74.245042,230.90646   L 69.284705,230.10637   L 64.324368,229.30628   L 59.364032,228.34617   L 54.563706,227.22604   L 49.92339,225.9459   L 45.283075,224.50573   L 40.802771,223.06557   L 36.482478,221.30536   L 32.322195,219.38514   L 28.321923,217.46492   L 24.641673,215.38469   L 21.121434,213.14443   L 17.921217,210.90417   L 15.041021,208.34388   L 12.320837,205.78359   L 9.9206737,203.06327   L 8.0005433,200.18294   L 6.2404238,197.30261   L 4.9603369,194.26227   L 4.0002717,191.0619   L 3.6802499,189.46171   L 3.5202391,187.86153   L 2.7201847,180.02063   L 2.0801413,172.33975   L 1.6001087,164.81889   L 1.1200761,157.45805   L 0.9600652,150.0972   L 0.64004347,143.0564   L 0.64004347,136.01559   L 0.64004347,129.29482   L 0.64004347,122.57405   L 0.9600652,116.0133   L 1.2800869,109.77258   L 1.6001087,103.53187   L 2.2401521,97.611188   L 2.7201847,91.690509   L 3.5202391,86.089867   L 4.3202934,80.489225   L 5.1203477,75.20862   L 6.0804129,70.088033   L 7.200489,65.287483   L 8.3205651,60.486933   L 9.600652,56.006419   L 10.880739,51.685924   L 12.320837,47.525447   L 13.760935,43.685007   L 15.201032,40.004585   L 16.801141,36.484182   L 18.561261,33.283815   L 20.32138,30.243466   L 22.0815,27.363136   L 24.00163,24.802843   L 25.92176,22.402568   L 27.841891,20.322329   L 28.961967,19.522238   L 30.242054,18.562127   L 31.682152,17.762036   L 33.28226,16.801926   L 34.882369,16.001834   L 36.642488,15.041724   L 38.562619,14.241632   L 40.482749,13.281522   L 42.562891,12.481431   L 44.803043,11.681339   L 47.043195,10.881247   L 49.443358,10.081155   L 51.843521,9.2810637   L 54.403695,8.480972   L 57.123879,7.6808803   L 59.684053,7.040807   L 62.564249,6.4007336   L 65.284434,5.6006419   L 68.164629,4.9605685   L 71.204836,4.4805135   L 74.245042,3.8404402   L 77.285249,3.3603851   L 80.325455,2.8803301   L 83.365662,2.4002751   L 86.565879,1.9202201   L 89.766096,1.6001834   L 92.966314,1.2801467   L 96.166531,1.1201284   L 99.526759,0.8000917   L 102.72698,0.64007336   L 105.92719,0.64007336   L 109.28742,0.64007336   L 109.28742,0.64007336  z    M 78.405325,33.76387   L 81.28552,40.644658   L 24.481663,40.644658   L 24.481663,61.927098   L 169.77153,61.927098   L 169.77153,40.644658   L 110.72752,40.644658   L 107.84732,33.76387   L 78.405325,33.76387   L 78.405325,33.76387  z    M 32.482206,66.887666   L 38.242597,76.968822   L 15.841076,76.968822   L 15.841076,99.211371   L 177.61206,99.211371   L 177.61206,76.968822   L 155.05053,76.968822   L 161.45096,66.887666   L 131.68894,66.887666   L 124.48845,76.968822   L 68.804673,76.968822   L 62.564249,66.887666   L 32.482206,66.887666   L 32.482206,66.887666  z   "
     clip-path="url(#clipWmfPath1)"
     style="fill:#138f31;fill-rule:evenodd;fill-opacity:1;stroke:none;" />
  <path
     id="path10"
     d="  M 49.443358,128.01467   L 49.443358,137.29574   L 145.7699,137.29574   L 145.7699,128.01467   L 49.443358,128.01467  z "
     style="fill:#138f31;fill-rule:evenodd;fill-opacity:1;stroke:none;" />
</svg>
