<?xml version="1.0" encoding="UTF-8" standalone="no"?>
<svg
   xmlns:dc="http://purl.org/dc/elements/1.1/"
   xmlns:cc="http://creativecommons.org/ns#"
   xmlns:rdf="http://www.w3.org/1999/02/22-rdf-syntax-ns#"
   xmlns:svg="http://www.w3.org/2000/svg"
   xmlns="http://www.w3.org/2000/svg"
   id="svg7"
   height="74.656595mm"
   width="74.656595mm"
   version="1.0">
  <metadata
     id="metadata11">
    <rdf:RDF>
      <cc:Work
         rdf:about="">
        <dc:format>image/svg+xml</dc:format>
        <dc:type
           rdf:resource="http://purl.org/dc/dcmitype/StillImage" />
      </cc:Work>
    </rdf:RDF>
  </metadata>
  <defs
     id="defs3">
    <pattern
       y="0"
       x="0"
       height="6"
       width="6"
       patternUnits="userSpaceOnUse"
       id="WMFhbasepattern" />
  </defs>
  <path
     id="path5"
     d="  M 72.180477,0.64018161   L 209.81952,0.64018161   L 211.58002,0.64018161   L 213.50057,0.64018161   L 215.26107,0.80022701   L 217.02157,0.96027242   L 218.94211,1.1203178   L 220.70261,1.4404086   L 222.46311,1.7604994   L 224.22361,2.0805902   L 225.98411,2.400681   L 227.58456,2.8808173   L 229.34506,3.2009081   L 231.10556,3.8410897   L 232.70602,4.3212259   L 234.30647,4.9614075   L 237.66742,6.2417707   L 240.70829,7.6821793   L 243.90919,9.122588   L 246.79001,10.883087   L 249.83087,12.803632   L 252.55165,14.724177   L 255.27242,16.964813   L 257.83314,19.205448   L 260.39387,21.446084   L 262.63451,24.00681   L 264.87514,26.567537   L 267.11578,29.288309   L 269.03632,32.169126   L 270.95687,35.049943   L 272.71737,37.93076   L 274.15778,41.131669   L 275.59818,44.332577   L 276.87855,47.533485   L 277.51873,49.133939   L 277.99886,50.894438   L 278.63905,52.494892   L 278.95914,54.255392   L 279.43927,56.015891   L 279.75936,57.616345   L 280.07946,59.376844   L 280.39955,61.137344   L 280.71964,63.057889   L 280.87968,64.818388   L 281.03973,66.578888   L 281.19977,68.499432   L 281.19977,70.259932   L 281.19977,72.020431   L 281.35982,209.81952   L 281.19977,211.58002   L 281.19977,213.50057   L 281.03973,215.26107   L 280.87968,217.02157   L 280.71964,218.94211   L 280.39955,220.70261   L 280.2395,222.46311   L 279.75936,224.22361   L 279.43927,225.98411   L 278.95914,227.58456   L 278.63905,229.34506   L 277.99886,231.10556   L 277.51873,232.70602   L 276.87855,234.30647   L 275.59818,237.66742   L 274.15778,240.70829   L 272.71737,243.90919   L 270.95687,246.79001   L 269.03632,249.83087   L 267.11578,252.55165   L 264.87514,255.27242   L 262.63451,257.83314   L 260.39387,260.39387   L 257.83314,262.63451   L 255.27242,264.87514   L 252.55165,267.11578   L 249.83087,269.03632   L 246.79001,270.95687   L 243.90919,272.71737   L 240.70829,274.15778   L 237.66742,275.59818   L 234.30647,276.87855   L 232.70602,277.51873   L 231.10556,277.99886   L 229.34506,278.63905   L 227.58456,278.95914   L 225.98411,279.43927   L 224.22361,279.75936   L 222.46311,280.07946   L 220.70261,280.39955   L 218.94211,280.71964   L 217.02157,280.87968   L 215.26107,281.03973   L 213.50057,281.19977   L 211.58002,281.19977   L 209.81952,281.19977   L 72.180477,281.35982   L 70.259932,281.19977   L 68.499432,281.19977   L 66.578888,281.03973   L 64.818388,280.87968   L 63.057889,280.71964   L 61.137344,280.39955   L 59.376844,280.2395   L 57.616345,279.75936   L 56.015891,279.43927   L 54.255392,278.95914   L 52.494892,278.63905   L 50.894438,277.99886   L 49.133939,277.51873   L 47.533485,276.87855   L 44.332577,275.59818   L 41.131669,274.15778   L 38.090806,272.71737   L 35.049943,270.95687   L 32.169126,269.03632   L 29.288309,267.11578   L 26.567537,264.87514   L 24.00681,262.63451   L 21.446084,260.39387   L 19.205448,257.83314   L 16.964813,255.27242   L 14.724177,252.55165   L 12.803632,249.83087   L 10.883087,246.79001   L 9.122588,243.90919   L 7.6821793,240.70829   L 6.2417707,237.66742   L 4.9614075,234.30647   L 4.3212259,232.70602   L 3.8410897,231.10556   L 3.2009081,229.34506   L 2.7207719,227.58456   L 2.400681,225.98411   L 1.9205448,224.22361   L 1.600454,222.46311   L 1.4404086,220.70261   L 1.1203178,218.94211   L 0.96027242,217.02157   L 0.80022701,215.26107   L 0.64018161,213.50057   L 0.48013621,211.58002   L 0.48013621,209.81952   L 0.64018161,72.180477   L 0.64018161,70.259932   L 0.64018161,68.499432   L 0.80022701,66.578888   L 0.96027242,64.818388   L 1.1203178,63.057889   L 1.4404086,61.137344   L 1.7604994,59.376844   L 2.0805902,57.616345   L 2.400681,56.015891   L 2.8808173,54.255392   L 3.2009081,52.494892   L 3.8410897,50.894438   L 4.3212259,49.133939   L 4.9614075,47.533485   L 6.2417707,44.332577   L 7.6821793,41.131669   L 9.122588,38.090806   L 10.883087,35.049943   L 12.803632,32.169126   L 14.724177,29.288309   L 16.964813,26.567537   L 19.205448,24.00681   L 21.446084,21.446084   L 24.00681,19.205448   L 26.567537,16.964813   L 29.288309,14.724177   L 32.169126,12.803632   L 35.049943,10.883087   L 37.93076,9.122588   L 41.131669,7.6821793   L 44.332577,6.2417707   L 47.533485,4.9614075   L 49.133939,4.3212259   L 50.894438,3.8410897   L 52.494892,3.2009081   L 54.255392,2.7207719   L 56.015891,2.400681   L 57.616345,1.9205448   L 59.376844,1.600454   L 61.137344,1.4404086   L 63.057889,1.1203178   L 64.818388,0.96027242   L 66.578888,0.80022701   L 68.499432,0.64018161   L 70.259932,0.48013621   L 72.020431,0.48013621   L 72.180477,0.64018161  z    M 95.867196,63.858116   L 94.906924,63.858116   L 93.946652,64.018161   L 92.986379,64.018161   L 92.026107,64.178207   L 91.065834,64.498297   L 90.265607,64.658343   L 89.305335,64.978434   L 88.505108,65.298524   L 87.704881,65.778661   L 86.904654,66.098751   L 85.3042,67.059024   L 83.863791,68.179342   L 82.423383,69.459705   L 81.303065,70.740068   L 80.182747,72.180477   L 79.222474,73.780931   L 78.742338,74.581158   L 78.422247,75.381385   L 78.102157,76.181612   L 77.782066,77.141884   L 77.461975,78.102157   L 77.30193,78.902384   L 77.141884,79.862656   L 76.981839,80.822928   L 76.981839,81.783201   L 76.981839,82.743473   L 76.981839,83.703746   L 76.981839,84.664018   L 77.141884,85.624291   L 77.30193,86.584563   L 77.461975,87.544835   L 77.782066,88.345062   L 78.102157,89.305335   L 78.422247,90.105562   L 78.742338,90.905789   L 79.222474,91.706016   L 80.182747,93.30647   L 81.303065,94.746879   L 82.423383,96.187287   L 83.863791,97.307605   L 85.3042,98.427923   L 86.904654,99.388195   L 87.704881,99.868331   L 88.505108,100.18842   L 89.305335,100.50851   L 90.265607,100.8286   L 91.065834,101.14869   L 92.026107,101.30874   L 92.986379,101.46879   L 93.946652,101.62883   L 94.906924,101.62883   L 95.867196,101.62883   L 185.97276,101.62883   L 186.93303,101.62883   L 187.8933,101.62883   L 188.85358,101.46879   L 189.81385,101.30874   L 190.77412,101.14869   L 191.57435,100.8286   L 192.53462,100.50851   L 193.33485,100.18842   L 194.29512,99.868331   L 195.09535,99.388195   L 196.53575,98.427923   L 197.97616,97.307605   L 199.41657,96.187287   L 200.53689,94.746879   L 201.65721,93.30647   L 202.61748,91.706016   L 203.09762,90.905789   L 203.41771,90.105562   L 203.7378,89.305335   L 204.05789,88.345062   L 204.37798,87.544835   L 204.53802,86.584563   L 204.69807,85.624291   L 204.85812,84.664018   L 204.85812,83.703746   L 205.01816,82.743473   L 204.85812,81.783201   L 204.85812,80.822928   L 204.69807,79.862656   L 204.53802,78.902384   L 204.37798,78.102157   L 204.05789,77.141884   L 203.7378,76.181612   L 203.41771,75.381385   L 203.09762,74.581158   L 202.61748,73.780931   L 201.65721,72.180477   L 200.53689,70.740068   L 199.41657,69.459705   L 197.97616,68.179342   L 196.53575,67.059024   L 195.09535,66.098751   L 194.29512,65.778661   L 193.33485,65.298524   L 192.53462,64.978434   L 191.57435,64.658343   L 190.77412,64.498297   L 189.81385,64.178207   L 188.85358,64.018161   L 187.8933,64.018161   L 186.93303,63.858116   L 185.97276,63.858116   L 95.867196,63.858116   L 95.867196,63.858116  z    M 68.179342,122.11464   L 67.219069,122.11464   L 66.258797,122.11464   L 65.298524,122.27469   L 64.338252,122.43473   L 63.538025,122.59478   L 62.577753,122.91487   L 61.777526,123.23496   L 60.817253,123.55505   L 60.017026,123.87514   L 59.216799,124.35528   L 57.616345,125.31555   L 56.175936,126.27582   L 54.895573,127.55619   L 53.61521,128.83655   L 52.494892,130.437   L 51.53462,131.87741   L 51.214529,132.67764   L 50.734393,133.63791   L 50.414302,134.43814   L 50.094211,135.23837   L 49.934166,136.19864   L 49.614075,137.15891   L 49.45403,138.11918   L 49.45403,138.91941   L 49.293984,139.87968   L 49.293984,141   L 49.293984,141.96027   L 49.45403,142.92054   L 49.45403,143.88082   L 49.614075,144.68104   L 49.934166,145.64132   L 50.094211,146.60159   L 50.414302,147.40182   L 50.734393,148.36209   L 51.214529,149.16232   L 51.53462,149.96254   L 52.494892,151.563   L 53.61521,153.00341   L 54.895573,154.28377   L 56.175936,155.56413   L 57.616345,156.68445   L 59.216799,157.48468   L 60.017026,157.96481   L 60.817253,158.2849   L 61.777526,158.76504   L 62.577753,158.92509   L 63.538025,159.24518   L 64.338252,159.40522   L 65.298524,159.56527   L 66.258797,159.72531   L 67.219069,159.88536   L 68.179342,159.88536   L 213.66061,159.88536   L 214.62089,159.88536   L 215.58116,159.72531   L 216.54143,159.56527   L 217.5017,159.40522   L 218.46198,159.24518   L 219.2622,158.92509   L 220.22247,158.76504   L 221.0227,158.2849   L 221.82293,157.96481   L 222.62316,157.48468   L 224.22361,156.68445   L 225.66402,155.56413   L 227.10443,154.28377   L 228.22474,153.00341   L 229.34506,151.563   L 230.30533,149.96254   L 230.78547,149.16232   L 231.10556,148.36209   L 231.42565,147.40182   L 231.74574,146.60159   L 232.06583,145.64132   L 232.22588,144.68104   L 232.38593,143.88082   L 232.54597,142.92054   L 232.54597,141.96027   L 232.54597,141   L 232.54597,139.87968   L 232.54597,138.91941   L 232.38593,138.11918   L 232.22588,137.15891   L 232.06583,136.19864   L 231.74574,135.23837   L 231.42565,134.43814   L 231.10556,133.63791   L 230.78547,132.67764   L 230.30533,131.87741   L 229.34506,130.437   L 228.22474,128.83655   L 227.10443,127.55619   L 225.66402,126.27582   L 224.22361,125.31555   L 222.62316,124.35528   L 221.82293,123.87514   L 221.0227,123.55505   L 220.22247,123.23496   L 219.2622,122.91487   L 218.46198,122.59478   L 217.5017,122.43473   L 216.54143,122.27469   L 215.58116,122.11464   L 214.62089,122.11464   L 213.66061,122.11464   L 68.179342,122.11464   L 68.179342,122.11464  z    M 95.867196,180.21112   L 94.906924,180.21112   L 93.946652,180.37117   L 92.986379,180.37117   L 92.026107,180.53121   L 91.065834,180.85131   L 90.265607,181.01135   L 89.305335,181.33144   L 88.505108,181.65153   L 87.704881,182.13167   L 86.904654,182.45176   L 85.3042,183.41203   L 83.863791,184.53235   L 82.423383,185.81271   L 81.303065,187.09308   L 80.182747,188.53348   L 79.222474,190.13394   L 78.742338,190.93417   L 78.422247,191.73439   L 78.102157,192.69467   L 77.782066,193.49489   L 77.461975,194.45516   L 77.30193,195.25539   L 77.141884,196.21566   L 76.981839,197.17594   L 76.981839,198.13621   L 76.981839,199.09648   L 76.981839,200.05675   L 76.981839,201.01703   L 77.141884,201.9773   L 77.30193,202.93757   L 77.461975,203.89784   L 77.782066,204.69807   L 78.102157,205.65834   L 78.422247,206.45857   L 78.742338,207.2588   L 79.222474,208.21907   L 80.182747,209.65948   L 81.303065,211.09989   L 82.423383,212.5403   L 83.863791,213.66061   L 85.3042,214.78093   L 86.904654,215.7412   L 87.704881,216.22134   L 88.505108,216.54143   L 89.305335,216.86152   L 90.265607,217.18161   L 91.065834,217.5017   L 92.026107,217.66175   L 92.986379,217.82179   L 93.946652,217.98184   L 94.906924,217.98184   L 95.867196,217.98184   L 185.97276,217.98184   L 186.93303,217.98184   L 187.8933,217.98184   L 188.85358,217.82179   L 189.81385,217.66175   L 190.77412,217.5017   L 191.57435,217.18161   L 192.53462,216.86152   L 193.33485,216.54143   L 194.29512,216.22134   L 195.09535,215.7412   L 196.53575,214.78093   L 197.97616,213.66061   L 199.41657,212.5403   L 200.53689,211.09989   L 201.65721,209.65948   L 202.61748,208.21907   L 203.09762,207.2588   L 203.41771,206.45857   L 203.7378,205.65834   L 204.05789,204.69807   L 204.37798,203.89784   L 204.53802,202.93757   L 204.69807,201.9773   L 204.85812,201.01703   L 204.85812,200.05675   L 205.01816,199.09648   L 204.85812,198.13621   L 204.85812,197.17594   L 204.69807,196.21566   L 204.53802,195.25539   L 204.37798,194.45516   L 204.05789,193.49489   L 203.7378,192.69467   L 203.41771,191.73439   L 203.09762,190.93417   L 202.61748,190.13394   L 201.65721,188.53348   L 200.53689,187.09308   L 199.41657,185.81271   L 197.97616,184.53235   L 196.53575,183.41203   L 195.09535,182.45176   L 194.29512,182.13167   L 193.33485,181.65153   L 192.53462,181.33144   L 191.57435,181.01135   L 190.77412,180.85131   L 189.81385,180.53121   L 188.85358,180.37117   L 187.8933,180.37117   L 186.93303,180.21112   L 185.97276,180.21112   L 95.867196,180.21112   L 95.867196,180.21112  z   "
     style="fill:#faa100;fill-rule:evenodd;fill-opacity:1;stroke:none;" />
</svg>
