<!DOCTYPE svg PUBLIC "-//W3C//DTD SVG 20010904//EN" "http://www.w3.org/TR/2001/REC-SVG-20010904/DTD/svg10.dtd">
<svg version="1.0" xmlns="http://www.w3.org/2000/svg" width="391px" height="391px" viewBox="0 0 3910 3910" preserveAspectRatio="xMidYMid meet">
<g id="layer101" fill="#00215e" stroke="none">
 <path d="M660 3596 c0 -4 882 -2602 1097 -3234 l25 -72 556 0 c760 0 987 17 1170 86 199 75 320 202 351 370 15 78 14 121 -5 212 -59 290 -266 549 -582 730 -75 42 -213 101 -292 123 -67 19 -68 26 -4 38 91 18 220 69 281 112 76 53 131 120 172 208 30 65 34 85 38 180 6 129 -12 212 -86 384 -181 423 -583 728 -1096 834 l-130 27 -747 4 c-412 2 -748 1 -748 -2z m1545 -539 c33 -10 102 -38 154 -63 240 -118 398 -398 341 -605 -15 -55 -73 -115 -143 -148 -97 -45 -174 -54 -456 -55 l-254 -1 -58 170 c-31 94 -100 295 -151 448 l-95 279 301 -4 c243 -4 313 -8 361 -21z m361 -1437 c126 -32 217 -83 309 -175 116 -114 175 -241 175 -373 0 -79 -17 -119 -69 -164 -80 -69 -238 -97 -541 -98 l-126 0 -36 108 c-19 59 -83 245 -141 415 l-105 307 228 0 c194 0 238 -3 306 -20z"/>
 <path d="M30 2395 l0 -345 340 0 340 0 0 345 0 345 -340 0 -340 0 0 -345z"/>
 <path d="M280 1130 l0 -340 340 0 340 0 0 340 0 340 -340 0 -340 0 0 -340z"/>
 </g>
<g id="layer102" fill="#ff9e00" stroke="none">
 <path d="M30 2395 l0 -345 340 0 340 0 0 345 0 345 -340 0 -340 0 0 -345z"/>
 <path d="M280 1130 l0 -340 340 0 340 0 0 340 0 340 -340 0 -340 0 0 -340z"/>
 </g>

</svg>