<?xml version="1.0" encoding="UTF-8" standalone="no"?>
<svg
   xmlns:dc="http://purl.org/dc/elements/1.1/"
   xmlns:cc="http://creativecommons.org/ns#"
   xmlns:rdf="http://www.w3.org/1999/02/22-rdf-syntax-ns#"
   xmlns:svg="http://www.w3.org/2000/svg"
   xmlns="http://www.w3.org/2000/svg"
   id="svg7"
   height="124.17778mm"
   width="127.79375mm"
   version="1.0">
  <metadata
     id="metadata11">
    <rdf:RDF>
      <cc:Work
         rdf:about="">
        <dc:format>image/svg+xml</dc:format>
        <dc:type
           rdf:resource="http://purl.org/dc/dcmitype/StillImage" />
      </cc:Work>
    </rdf:RDF>
  </metadata>
  <defs
     id="defs3">
    <pattern
       y="0"
       x="0"
       height="6"
       width="6"
       patternUnits="userSpaceOnUse"
       id="WMFhbasepattern" />
  </defs>
  <path
     id="path5"
     d="  M 181.33333,415.66667   L 181.33333,415.66667   L 181.33333,443.66667   L 181.33333,461   L 181.33333,461   L 180.66667,463.66667   L 179.66667,465.33333   L 178.33333,466.66667   L 176.66667,467.66667   L 175,468   L 173,468   L 169.33333,468.33333   L 169.33333,468.33333   L 165.66667,467.66667   L 161.66667,467   L 154,465   L 146,462   L 137.33333,458   L 128.33333,453   L 118.66667,447.33333   L 108.33333,440.66667   L 97.333333,433   L 97.333333,433   L 86,423.66667   L 80.333333,419   L 75,413.66667   L 69.333333,408.33333   L 64,402.66667   L 58.666667,397   L 53.666667,391   L 48.666667,384.66667   L 43.666667,378.33333   L 39,371.66667   L 34.666667,364.66667   L 30.333333,357.66667   L 26.333333,350.33333   L 22.333333,342.66667   L 18.666667,335   L 15.333333,327   L 12.333333,319   L 9.6666667,310.33333   L 7,301.66667   L 5,293   L 3.3333333,284   L 1.6666667,274.66667   L 0.66666667,265   L 0,255.33333   L 0,245.33333   L 0,235.33333   L 0.66666667,224.66667   L 1.6666667,214.33333   L 3.3333333,203.33333   L 5.3333333,192.33333   L 8,181   L 8,181   L 10.666667,171.33333   L 13.333333,162   L 16.333333,153   L 19.666667,144.33333   L 23.333333,135.66667   L 27,127   L 31.333333,119   L 35.666667,111   L 40.333333,103.33333   L 45.333333,96   L 50.666667,88.666667   L 56,81.666667   L 62,75   L 68,68.666667   L 74.333333,62.666667   L 80.666667,56.666667   L 87.666667,51   L 94.666667,45.666667   L 102.33333,40.666667   L 110,35.666667   L 118,31.333333   L 126,27   L 134.66667,23   L 143.33333,19.333333   L 152.66667,16   L 162,13   L 171.66667,10.333333   L 181.33333,7.6666667   L 191.66667,5.6666667   L 202.33333,3.6666667   L 213,2.3333333   L 224,1   L 224,1   L 235.66667,0.33333333   L 247.33333,0   L 259,0.33333333   L 270.33333,1.3333333   L 281.66667,3   L 292.66667,5   L 303.33333,7.3333333   L 314,10.666667   L 324.33333,14   L 334.33333,18.333333   L 344.33333,22.666667   L 354,27.666667   L 363.33333,33   L 372.33333,38.666667   L 381.33333,44.666667   L 389.66667,51.333333   L 398,58   L 405.66667,65.333333   L 413.33333,72.666667   L 420.66667,80.333333   L 427.66667,88.333333   L 434,96.666667   L 440.33333,105.33333   L 446,114   L 451.33333,122.66667   L 456.33333,132   L 461,141   L 465,150.33333   L 469,160   L 472,169.66667   L 475,179.33333   L 477.33333,189   L 477.33333,189   L 479.66667,202   L 481.66667,214.66667   L 482.66667,227.33333   L 482.66667,240   L 482.33333,252.33333   L 481.66667,264.33333   L 480,276.33333   L 477.66667,288   L 475,299.66667   L 471.66667,310.66667   L 468,321.66667   L 463.66667,332.33333   L 459,342.66667   L 454,353   L 448.33333,362.66667   L 442.33333,372   L 436,381.33333   L 429.33333,390   L 422.33333,398.33333   L 415.33333,406.66667   L 407.66667,414.33333   L 400,421.33333   L 392.33333,428.33333   L 384,434.66667   L 376,440.66667   L 367.66667,446   L 359,451.33333   L 350.33333,455.66667   L 342,460   L 333.33333,463.33333   L 324.66667,466.33333   L 316,469   L 316,469   L 312.33333,469   L 310.33333,468.66667   L 308.33333,468.33333   L 306.33333,467.33333   L 304.66667,466.33333   L 303.33333,464.33333   L 303,463.33333   L 302.66667,462.33333   L 302.66667,462.33333   L 302.33333,438   L 302.33333,417.66667   L 302.33333,400.33333   L 301.66667,386.33333   L 301,380   L 300,374.33333   L 299,369.33333   L 297.66667,364.66667   L 295.66667,360.33333   L 293.66667,356.33333   L 291,352.66667   L 288,349   L 288,349   L 288,348.33333   L 287.33333,347.66667   L 286.66667,347   L 286.66667,346.66667   L 286.66667,346.33333   L 286.66667,346.33333   L 293,345.66667   L 299.33333,345   L 305.33333,344   L 311.33333,343   L 317,341.66667   L 322.66667,340   L 328.33333,338.33333   L 333.66667,336.33333   L 338.66667,334   L 343.66667,331.33333   L 348.33333,328.66667   L 353,325.66667   L 357.33333,322.66667   L 361.66667,319.33333   L 365.66667,315.33333   L 369.33333,311.66667   L 372.66667,307.33333   L 376,303   L 379.33333,298.33333   L 382,293.33333   L 384.66667,288   L 387,282.33333   L 389,276.66667   L 390.66667,270.66667   L 392.33333,264.33333   L 393.66667,257.66667   L 394.33333,250.66667   L 395,243.66667   L 395.33333,236   L 395.66667,228.33333   L 395.33333,220   L 394.66667,211.66667   L 394.66667,211.66667   L 394,207.33333   L 393,203.33333   L 392,199.66667   L 391,196   L 388.33333,189.33333   L 385,183   L 381.66667,177.66667   L 378.33333,172.66667   L 372,163.66667   L 372,163.66667   L 374.66667,151.66667   L 375.66667,145   L 376,142   L 376,139.66667   L 376,139.66667   L 375.66667,133   L 375,127.33333   L 374.33333,122   L 373.33333,117   L 372.33333,112.33333   L 371,108   L 368,99.666667   L 368,99.666667   L 363.33333,99   L 359,99   L 354.66667,99.333333   L 350.33333,100.33333   L 346,101.33333   L 341.66667,103   L 333.33333,106.33333   L 325.33333,110.33333   L 317.33333,114.66667   L 309.33333,118.33333   L 305.33333,119.66667   L 301.33333,121   L 301.33333,121   L 295,120.66667   L 289,120.33333   L 276.33333,118.66667   L 264.33333,116.66667   L 258.66667,116   L 253.33333,115.66667   L 253.33333,115.66667   L 242.66667,115   L 233.33333,115.33333   L 225,115.66667   L 217,116.66667   L 209.66667,117.66667   L 202,119   L 186.66667,122.33333   L 186.66667,122.33333   L 182,121.33333   L 177.66667,120   L 174,118.66667   L 170.33333,117   L 164,113.33333   L 157.33333,109.66667   L 150,106   L 146,104   L 141.66667,102.33333   L 136.33333,101   L 130.66667,99.666667   L 124.33333,98.666667   L 117,97.666667   L 117,97.666667   L 116,98.666667   L 115,100.33333   L 113,104.33333   L 111.33333,109.33333   L 110,115.33333   L 108.66667,122.33333   L 108,129.33333   L 107.66667,136.66667   L 108,143.66667   L 108,143.66667   L 108.66667,149   L 109.66667,154   L 110.66667,159.33333   L 110.66667,162   L 110.66667,165   L 110.66667,165   L 106.66667,170   L 103.33333,175   L 100.33333,180.33333   L 97.333333,185.66667   L 95,191.66667   L 93,197.66667   L 91,204.33333   L 89.333333,211.66667   L 89.333333,211.66667   L 88.333333,223.66667   L 88.333333,235.33333   L 89,247   L 90.333333,258   L 91.333333,263   L 92.333333,268.33333   L 93.666667,273.33333   L 95,278   L 96.666667,282.66667   L 98.666667,287.33333   L 100.66667,291.66667   L 102.66667,295.66667   L 102.66667,295.66667   L 106.33333,301.66667   L 110.33333,307.33333   L 114.66667,312.33333   L 119.33333,317   L 124,321.33333   L 129.33333,325.33333   L 134.66667,328.66667   L 140.33333,332   L 146.33333,334.66667   L 152.33333,337   L 158.66667,339.33333   L 165.33333,341.33333   L 172,343   L 179,344.33333   L 186,345.33333   L 193.33333,346.33333   L 193.33333,346.33333   L 192,351   L 190.66667,355.66667   L 187.33333,364   L 183.66667,372   L 180,379.66667   L 180,379.66667   L 173.66667,381.66667   L 167.66667,383   L 162,384   L 157,384.66667   L 152.33333,384.66667   L 148,384.66667   L 144,384   L 140.33333,383.33333   L 137,382   L 134,380.66667   L 131,379   L 128.33333,377.33333   L 126,375.33333   L 123.66667,373   L 119.33333,368.33333   L 115.33333,363   L 111.33333,358   L 107.33333,352.66667   L 103,347.66667   L 100.33333,345.33333   L 98,343   L 95,341   L 92,339.33333   L 89,337.66667   L 85.333333,336.33333   L 81.333333,335   L 77.333333,334.33333   L 77.333333,334.33333   L 75,334.66667   L 73,335   L 68.333333,336.33333   L 65.333333,337.66667   L 64,338.33333   L 64,338.33333   L 68.666667,343   L 72.666667,347.33333   L 80.333333,354   L 86.666667,360   L 89.333333,363   L 92,366.33333   L 92,366.33333   L 98,378.66667   L 100.66667,384   L 103.66667,389   L 106.66667,393.66667   L 110,398   L 113.33333,401.66667   L 117.66667,405   L 122.33333,407.66667   L 127.66667,410.33333   L 134,412.33333   L 141,413.66667   L 149.33333,415   L 158.66667,415.66667   L 169.33333,415.66667   L 181.33333,415.66667   L 181.33333,415.66667  z   "
     style="fill:#040000;fill-rule:nonzero;fill-opacity:1;stroke:none;" />
</svg>
