<!DOCTYPE svg PUBLIC "-//W3C//DTD SVG 20010904//EN" "http://www.w3.org/TR/2001/REC-SVG-20010904/DTD/svg10.dtd">
<svg version="1.0" xmlns="http://www.w3.org/2000/svg" width="139px" height="139px" viewBox="0 0 1390 1390" preserveAspectRatio="xMidYMid meet">
<g id="layer101" fill="#ed7864" stroke="none">
 <path d="M0 695 l0 -695 695 0 695 0 0 695 0 695 -695 0 -695 0 0 -695z"/>
 </g>
<g id="layer102" fill="#ffffff" stroke="none">
 <path d="M165 1309 c-3 -8 -4 -174 -3 -369 l3 -355 68 -3 c37 -2 67 -7 67 -11 0 -21 -40 -122 -61 -154 -26 -39 -42 -40 -102 -10 -37 18 -57 10 -57 -22 0 -37 16 -62 49 -80 16 -8 46 -31 67 -52 35 -34 51 -62 85 -150 7 -20 16 -23 63 -23 62 0 84 16 66 50 -6 11 -8 25 -5 30 4 6 72 10 166 10 l159 0 0 28 c0 49 -17 59 -103 64 -42 3 -80 7 -83 10 -3 3 1 21 8 39 8 19 13 40 12 47 -1 6 -2 17 -3 22 -1 7 -24 10 -58 8 l-58 -3 -13 -55 c-15 -60 -24 -70 -62 -70 -18 0 -42 17 -79 55 l-54 55 45 0 c56 0 81 23 128 116 41 80 35 98 -31 101 -24 1 -52 2 -61 2 -17 1 -18 24 -18 344 -1 281 -3 345 -15 361 -18 24 -112 36 -120 15z"/>
 <path d="M967 1297 c-10 -7 -19 -28 -20 -47 l-2 -35 70 -3 c112 -5 105 17 105 -349 0 -172 -3 -314 -7 -314 -5 -1 -141 -2 -303 -4 -162 -1 -305 -5 -317 -9 -13 -4 -23 -15 -23 -25 0 -9 -5 -22 -11 -28 -7 -7 -9 -19 -6 -27 6 -14 51 -16 395 -16 321 0 392 2 401 14 9 10 11 112 9 372 -3 351 -3 360 -26 406 -18 36 -32 50 -63 62 -48 19 -178 22 -202 3z"/>
 <path d="M470 1162 c-8 -3 -18 -10 -22 -16 -9 -13 -11 -478 -2 -500 5 -14 38 -16 264 -16 226 0 259 2 264 16 3 9 6 100 6 203 0 174 -2 190 -22 231 -42 80 -50 83 -275 86 -109 1 -205 0 -213 -4z m356 -103 c10 -9 14 -28 12 -63 l-3 -51 -132 -3 -133 -3 0 64 c0 35 2 66 4 68 10 10 238 -1 252 -12z m14 -275 l0 -55 -132 3 -133 3 -3 52 -3 52 38 3 c21 2 82 2 136 0 l97 -3 0 -55z"/>
 <path d="M670 382 c0 -34 7 -44 63 -94 59 -53 75 -77 116 -181 11 -27 14 -28 69 -25 l57 3 0 40 0 40 150 2 c83 2 160 5 173 8 29 7 30 47 1 76 -17 17 -31 20 -89 17 -38 -1 -72 1 -76 5 -4 4 0 23 9 42 21 45 22 81 1 89 -9 3 -35 6 -59 6 -48 0 -45 5 -70 -102 -10 -39 -24 -47 -70 -39 -26 5 -54 21 -80 47 -42 41 -151 104 -179 104 -12 0 -16 -10 -16 -38z"/>
 </g>

</svg>