<?xml version="1.0" standalone="no"?><!DOCTYPE svg PUBLIC "-//W3C//DTD SVG 1.1//EN" "http://www.w3.org/Graphics/SVG/1.1/DTD/svg11.dtd"><svg t="1569320936389" class="icon" viewBox="0 0 1024 1024" version="1.1" xmlns="http://www.w3.org/2000/svg" p-id="2027" xmlns:xlink="http://www.w3.org/1999/xlink" width="200" height="200"><defs><style type="text/css"></style></defs><path d="M546.977642 820.660489c-11.500465 1.26999-23.14204 1.940263-34.995281 1.940262-172.577531 0-312.488097-139.910566-312.488097-312.488097s139.910566-312.488097 312.488097-312.488098 312.488097 139.910566 312.488098 312.488098c0 47.871568-10.759638 93.238433-30.021153 133.807558l116.980191 55.420953C938.663727 641.97995 953.903607 577.845454 953.903607 510.112654c0-244.049747-197.836221-441.921246-441.921246-441.921246S70.096393 266.062907 70.096393 510.112654s197.836221 441.921246 441.921246 441.921245c16.721535 0 33.231405-0.952493 49.459055-2.751645z" fill="#348CF7" p-id="2028"></path><path d="M511.982361 195.649016c-93.767596 0-177.939711 41.027733-235.547869 106.114721l51.22293 45.331588c45.084645-50.94071 110.947738-83.043236 184.324939-83.043236 135.888931 0 246.095842 110.171633 246.095842 246.095842s-110.171633 246.095842-246.095842 246.095842c-76.305233 0-144.496641-34.748338-189.651841-89.252076l-52.704586 43.602991c57.678713 69.673063 144.849416 114.052158 242.356427 114.052158 173.671134 0 314.463637-140.792504 314.463638-314.463637s-140.757226-314.534192-314.463638-314.534193z" fill="#74BCF7" p-id="2029"></path><path d="M511.982361 510.112654L649.106005 979.656182c114.475488-33.372515 211.594447-107.455266 274.600062-205.561994z" fill="#E2295A" p-id="2030"></path></svg>